<?xml version="1.0" encoding="utf-8"?>
<!-- Generator: Adobe Illustrator 16.0.0, SVG Export Plug-In . SVG Version: 6.00 Build 0)  -->
<!DOCTYPE svg PUBLIC "-//W3C//DTD SVG 1.1//EN" "http://www.w3.org/Graphics/SVG/1.1/DTD/svg11.dtd">
<svg version="1.1" id="Layer_1" xmlns="http://www.w3.org/2000/svg" xmlns:xlink="http://www.w3.org/1999/xlink" x="0px" y="0px"
	 width="742px" height="637px" viewBox="0 0 742 637" enable-background="new 0 0 742 637" xml:space="preserve">
<path fill="#676767" d="M71.128,563.273c0,7.534-2.805,13.346-8.422,17.432c-5.613,4.088-13.486,6.129-23.635,6.129
	c-10.736,0-19.104-1.696-25.111-5.096v-11.373c3.893,1.969,8.064,3.521,12.518,4.651c4.459,1.132,8.754,1.7,12.895,1.7
	c6.395,0,11.32-1.021,14.77-3.066c3.445-2.041,5.172-5.157,5.172-9.344c0-3.147-1.371-5.847-4.1-8.088
	c-2.734-2.239-8.064-4.884-15.992-7.94c-7.531-2.805-12.893-5.256-16.068-7.349c-3.174-2.092-5.537-4.469-7.092-7.125
	c-1.547-2.66-2.32-5.836-2.32-9.529c0-6.599,2.684-11.806,8.047-15.623c5.367-3.813,12.727-5.721,22.088-5.721
	c8.713,0,17.23,1.771,25.553,5.316l-4.354,9.971c-8.129-3.347-15.488-5.021-22.086-5.021c-5.814,0-10.193,0.912-13.146,2.732
	c-2.957,1.821-4.438,4.333-4.438,7.535c0,2.165,0.559,4.012,1.664,5.537c1.111,1.526,2.895,2.98,5.354,4.359
	c2.465,1.379,7.193,3.373,14.184,5.98c9.6,3.498,16.088,7.017,19.465,10.565C69.44,553.45,71.128,557.909,71.128,563.273z"/>
<path fill="#676767" d="M102.591,504.407v52.516c0,6.598,1.502,11.522,4.506,14.771c3.004,3.251,7.703,4.873,14.107,4.873
	c8.467,0,14.662-2.313,18.578-6.941c3.914-4.626,5.869-12.188,5.869-22.677v-42.542h12.26v80.951h-10.115l-1.777-10.857h-0.658
	c-2.518,3.986-5.996,7.043-10.457,9.157c-4.453,2.118-9.537,3.176-15.248,3.176c-9.854,0-17.225-2.339-22.127-7.017
	c-4.895-4.677-7.348-12.161-7.348-22.453v-52.957H102.591z"/>
<path fill="#676767" d="M221.581,586.833c-5.268,0-10.082-0.972-14.439-2.918c-4.355-1.942-8.014-4.935-10.971-8.971h-0.883
	c0.59,4.723,0.883,9.206,0.883,13.441v33.311h-12.256v-117.29h9.967l1.697,11.078h0.592c3.152-4.433,6.82-7.631,11.006-9.603
	c4.184-1.965,8.986-2.951,14.404-2.951c10.73,0,19.02,3.668,24.854,11.005c5.838,7.337,8.754,17.628,8.754,30.871
	c0,13.296-2.969,23.626-8.9,30.986C240.354,583.153,232.116,586.833,221.581,586.833z M219.81,513.343
	c-8.271,0-14.258,2.29-17.947,6.87c-3.697,4.58-5.59,11.866-5.691,21.863v2.73c0,11.376,1.896,19.514,5.691,24.41
	c3.789,4.901,9.869,7.35,18.24,7.35c6.992,0,12.473-2.832,16.436-8.492c3.959-5.661,5.943-13.468,5.943-23.414
	c0-10.094-1.984-17.838-5.943-23.229C232.575,516.042,226.997,513.343,219.81,513.343z"/>
<path fill="#676767" d="M326.388,585.358l-2.439-11.522h-0.592c-4.035,5.069-8.059,8.507-12.072,10.304
	c-4.018,1.794-9.027,2.694-15.035,2.694c-8.023,0-14.314-2.067-18.869-6.202c-4.553-4.139-6.834-10.021-6.834-17.656
	c0-16.345,13.074-24.912,39.221-25.702l13.74-0.441v-5.022c0-6.351-1.365-11.043-4.1-14.071c-2.734-3.027-7.102-4.541-13.109-4.541
	c-6.746,0-14.383,2.067-22.9,6.203l-3.766-9.379c3.988-2.167,8.357-3.866,13.109-5.096c4.752-1.231,9.516-1.849,14.295-1.849
	c9.648,0,16.801,2.141,21.455,6.426c4.656,4.285,6.977,11.152,6.977,20.607v55.248H326.388z M298.69,576.716
	c7.629,0,13.627-2.092,17.982-6.277c4.357-4.185,6.533-10.049,6.533-17.581v-7.311l-12.254,0.519
	c-9.75,0.344-16.783,1.857-21.088,4.539c-4.313,2.683-6.467,6.859-6.467,12.521c0,4.431,1.342,7.807,4.029,10.117
	C290.11,575.558,293.864,576.716,298.69,576.716z"/>
<path fill="#676767" d="M353.938,550.422v-11.229H390.2v11.229H353.938z"/>
<path fill="#676767" d="M464.8,585.358v-52.367c0-6.599-1.502-11.522-4.506-14.772c-3.004-3.249-7.703-4.875-14.107-4.875
	c-8.465,0-14.674,2.29-18.611,6.87c-3.939,4.58-5.912,12.138-5.912,22.674v42.471h-12.254v-80.951h9.969l1.994,11.078h0.59
	c2.512-3.987,6.031-7.077,10.564-9.27c4.529-2.19,9.572-3.284,15.139-3.284c9.75,0,17.09,2.351,22.012,7.05
	c4.926,4.706,7.385,12.228,7.385,22.567v52.81H464.8z"/>
<path fill="#676767" d="M572.118,544.807c0,13.199-3.324,23.5-9.967,30.911c-6.65,7.413-15.834,11.115-27.551,11.115
	c-7.24,0-13.666-1.696-19.277-5.096c-5.617-3.396-9.951-8.271-13-14.624c-3.057-6.351-4.58-13.785-4.58-22.307
	c0-13.195,3.295-23.476,9.898-30.836c6.598-7.36,15.752-11.04,27.475-11.04c11.328,0,20.32,3.765,26.994,11.299
	C568.782,521.764,572.118,531.956,572.118,544.807z M510.446,544.807c0,10.342,2.068,18.221,6.207,23.638
	c4.133,5.417,10.215,8.122,18.24,8.122c8.023,0,14.117-2.693,18.279-8.089c4.162-5.388,6.244-13.281,6.244-23.671
	c0-10.292-2.082-18.105-6.244-23.449c-4.162-5.34-10.301-8.015-18.428-8.015c-8.025,0-14.078,2.634-18.166,7.902
	C512.491,526.516,510.446,534.369,510.446,544.807z"/>
<path fill="#676767" d="M611.339,585.358l-30.725-80.951h13.148l17.432,48.01c3.939,11.225,6.25,18.516,6.941,21.863h0.592
	c0.537-2.611,2.252-8.014,5.131-16.214c2.883-8.2,9.344-26.084,19.391-53.659h13.145l-30.725,80.951H611.339z"/>
<path fill="#676767" d="M719.179,585.358l-2.441-11.522h-0.59c-4.035,5.069-8.061,8.507-12.074,10.304
	c-4.018,1.794-9.027,2.694-15.035,2.694c-8.025,0-14.313-2.067-18.869-6.202c-4.553-4.139-6.834-10.021-6.834-17.656
	c0-16.345,13.074-24.912,39.221-25.702l13.74-0.441v-5.022c0-6.351-1.365-11.043-4.1-14.071c-2.734-3.027-7.102-4.541-13.109-4.541
	c-6.746,0-14.383,2.067-22.898,6.203l-3.77-9.379c3.99-2.167,8.359-3.866,13.111-5.096c4.752-1.231,9.516-1.849,14.297-1.849
	c9.646,0,16.801,2.141,21.457,6.426c4.654,4.285,6.975,11.152,6.975,20.607v55.248H719.179z M691.481,576.716
	c7.629,0,13.625-2.092,17.98-6.277c4.357-4.185,6.535-10.049,6.535-17.581v-7.311l-12.256,0.519
	c-9.75,0.344-16.783,1.857-21.09,4.539c-4.309,2.683-6.463,6.859-6.463,12.521c0,4.431,1.338,7.807,4.029,10.117
	C682.899,575.558,686.653,576.716,691.481,576.716z"/>
<g>
	<linearGradient id="SVGID_1_" gradientUnits="userSpaceOnUse" x1="282.3633" y1="60.3794" x2="550.4102" y2="60.3794">
		<stop  offset="0" style="stop-color:#87CFD9"/>
		<stop  offset="0.2692" style="stop-color:#76C2CC"/>
		<stop  offset="0.8046" style="stop-color:#46A6B1"/>
		<stop  offset="1" style="stop-color:#2A9CA6"/>
	</linearGradient>
	<path fill="url(#SVGID_1_)" d="M546.484,100.247c-40.08-51.662-102.699-84.943-173.143-84.943
		c-32.479,0-63.256,7.122-90.979,19.791c4.516-0.275,9.07-0.464,13.664-0.464c58.352,0,111.328,22.854,150.584,60.05
		c9.756-1.324,19.689-2.066,29.811-2.066c24.627,0,48.268,4.119,70.363,11.614c1.209,0.407,2.43,0.8,3.625,1.227
		C549.121,103.698,547.816,101.966,546.484,100.247z"/>
	<linearGradient id="SVGID_2_" gradientUnits="userSpaceOnUse" x1="387.002" y1="272.771" x2="592.3887" y2="272.771">
		<stop  offset="0" style="stop-color:#87CFD9"/>
		<stop  offset="0.2692" style="stop-color:#76C2CC"/>
		<stop  offset="0.8046" style="stop-color:#46A6B1"/>
		<stop  offset="1" style="stop-color:#2A9CA6"/>
	</linearGradient>
	<path fill="url(#SVGID_2_)" d="M550.41,105.455c-1.195-0.427-2.416-0.82-3.625-1.227c-22.096-7.495-45.736-11.614-70.363-11.614
		c-10.121,0-20.055,0.742-29.811,2.066c37.709,35.729,62.711,84.696,67.545,139.488c0.576,6.435,0.918,12.929,0.918,19.507
		c0,88.511-52.523,164.698-128.072,199.252c114.609-7.057,205.387-102.194,205.387-218.576
		C592.389,186.156,576.783,141.622,550.41,105.455z"/>
	<linearGradient id="SVGID_3_" gradientUnits="userSpaceOnUse" x1="155.0977" y1="346.5181" x2="299.3555" y2="346.5181">
		<stop  offset="0" style="stop-color:#87CFD9"/>
		<stop  offset="0.2692" style="stop-color:#76C2CC"/>
		<stop  offset="0.8046" style="stop-color:#46A6B1"/>
		<stop  offset="1" style="stop-color:#2A9CA6"/>
	</linearGradient>
	<path fill="url(#SVGID_3_)" d="M155.098,252.478c7.135,87.061,65.131,159.682,144.258,188.08c-23.77-32.603-38.75-72-41.48-114.743
		C216.768,311.873,181.158,286.08,155.098,252.478z"/>
	<linearGradient id="SVGID_4_" gradientUnits="userSpaceOnUse" x1="257.875" y1="343.7837" x2="515.0742" y2="343.7837">
		<stop  offset="0" style="stop-color:#87CFD9"/>
		<stop  offset="0.2692" style="stop-color:#76C2CC"/>
		<stop  offset="0.8046" style="stop-color:#46A6B1"/>
		<stop  offset="1" style="stop-color:#2A9CA6"/>
	</linearGradient>
	<path fill="url(#SVGID_4_)" d="M515.074,253.676c0-6.578-0.342-13.072-0.918-19.507c-38.684,61.985-107.459,103.26-185.916,103.26
		c-24.623,0-48.268-4.121-70.365-11.614c2.73,42.742,17.711,82.14,41.48,114.743c23.105,8.288,48.008,12.841,73.986,12.841
		c4.588,0,9.131-0.196,13.66-0.471C462.551,418.374,515.074,342.187,515.074,253.676z"/>
	<linearGradient id="SVGID_5_" gradientUnits="userSpaceOnUse" x1="154.293" y1="180.2231" x2="446.6113" y2="180.2231">
		<stop  offset="0" style="stop-color:#87CFD9"/>
		<stop  offset="0.2692" style="stop-color:#76C2CC"/>
		<stop  offset="0.8046" style="stop-color:#46A6B1"/>
		<stop  offset="1" style="stop-color:#2A9CA6"/>
	</linearGradient>
	<path fill="url(#SVGID_5_)" d="M257.875,325.815c-0.299-4.689-0.498-9.395-0.498-14.152c0-110.867,82.371-202.434,189.234-216.982
		c-39.256-37.196-92.232-60.05-150.584-60.05c-4.594,0-9.148,0.189-13.664,0.464c-75.549,34.554-128.07,110.741-128.07,199.258
		c0,6.114,0.313,12.144,0.805,18.126C181.158,286.08,216.768,311.873,257.875,325.815z"/>
</g>
<g>
	<linearGradient id="SVGID_6_" gradientUnits="userSpaceOnUse" x1="236.8281" y1="746.8569" x2="506.293" y2="746.8569">
		<stop  offset="0" style="stop-color:#87CFD9"/>
		<stop  offset="0.2692" style="stop-color:#76C2CC"/>
		<stop  offset="0.8046" style="stop-color:#46A6B1"/>
		<stop  offset="1" style="stop-color:#2A9CA6"/>
	</linearGradient>
	<path fill="url(#SVGID_6_)" d="M502.344,786.939c-40.291-51.938-103.242-85.396-174.059-85.396c-32.65,0-63.588,7.16-91.457,19.896
		c4.539-0.275,9.117-0.467,13.738-0.467c58.654,0,111.916,22.979,151.375,60.373c9.807-1.338,19.795-2.08,29.969-2.08
		c24.756,0,48.523,4.139,70.734,11.672c1.215,0.408,2.447,0.803,3.648,1.234C504.994,790.406,503.68,788.666,502.344,786.939z"/>
	<linearGradient id="SVGID_7_" gradientUnits="userSpaceOnUse" x1="342.0176" y1="960.3726" x2="548.4922" y2="960.3726">
		<stop  offset="0" style="stop-color:#87CFD9"/>
		<stop  offset="0.2692" style="stop-color:#76C2CC"/>
		<stop  offset="0.8046" style="stop-color:#46A6B1"/>
		<stop  offset="1" style="stop-color:#2A9CA6"/>
	</linearGradient>
	<path fill="url(#SVGID_7_)" d="M506.293,792.171c-1.201-0.432-2.434-0.826-3.648-1.234c-22.211-7.533-45.979-11.672-70.734-11.672
		c-10.174,0-20.162,0.742-29.969,2.08c37.912,35.916,63.047,85.143,67.904,140.221c0.578,6.469,0.924,12.996,0.924,19.607
		c0,88.982-52.805,165.574-128.752,200.307c115.213-7.09,206.475-102.732,206.475-219.729
		C548.492,873.296,532.803,828.533,506.293,792.171z"/>
	<linearGradient id="SVGID_8_" gradientUnits="userSpaceOnUse" x1="108.8906" y1="1034.5073" x2="253.9102" y2="1034.5073">
		<stop  offset="0" style="stop-color:#87CFD9"/>
		<stop  offset="0.2692" style="stop-color:#76C2CC"/>
		<stop  offset="0.8046" style="stop-color:#46A6B1"/>
		<stop  offset="1" style="stop-color:#2A9CA6"/>
	</linearGradient>
	<path fill="url(#SVGID_8_)" d="M108.891,939.97c7.17,87.52,65.471,160.527,145.02,189.074
		c-23.9-32.773-38.957-72.379-41.697-115.348C170.887,999.683,135.088,973.753,108.891,939.97z"/>
	<linearGradient id="SVGID_9_" gradientUnits="userSpaceOnUse" x1="212.2129" y1="1031.7603" x2="470.7695" y2="1031.7603">
		<stop  offset="0" style="stop-color:#87CFD9"/>
		<stop  offset="0.2692" style="stop-color:#76C2CC"/>
		<stop  offset="0.8046" style="stop-color:#46A6B1"/>
		<stop  offset="1" style="stop-color:#2A9CA6"/>
	</linearGradient>
	<path fill="url(#SVGID_9_)" d="M470.77,941.173c0-6.611-0.346-13.139-0.924-19.607c-38.887,62.313-108.027,103.805-186.898,103.805
		c-24.756,0-48.523-4.139-70.734-11.674c2.74,42.969,17.797,82.574,41.697,115.348c23.229,8.332,48.258,12.91,74.375,12.91
		c4.613,0,9.178-0.195,13.732-0.475C417.965,1106.748,470.77,1030.156,470.77,941.173z"/>
	<linearGradient id="SVGID_10_" gradientUnits="userSpaceOnUse" x1="108.082" y1="867.3345" x2="401.9414" y2="867.3345">
		<stop  offset="0" style="stop-color:#87CFD9"/>
		<stop  offset="0.2692" style="stop-color:#76C2CC"/>
		<stop  offset="0.8046" style="stop-color:#46A6B1"/>
		<stop  offset="1" style="stop-color:#2A9CA6"/>
	</linearGradient>
	<path fill="url(#SVGID_10_)" d="M212.213,1013.697c-0.307-4.715-0.506-9.441-0.506-14.229
		c0-111.453,82.809-203.502,190.234-218.123c-39.459-37.395-92.721-60.373-151.375-60.373c-4.621,0-9.199,0.191-13.738,0.467
		c-75.951,34.736-128.746,111.328-128.746,200.313c0,6.146,0.311,12.207,0.809,18.219
		C135.088,973.753,170.887,999.683,212.213,1013.697z"/>
</g>
<g>
	<g>
		<path fill="#676868" d="M65.278,955.642c-3.985-0.061-7.038-1.594-9.155-4.598c-2.117-3.002-3.133-7.188-3.05-12.556
			c0.086-5.68,1.054-10.095,2.899-13.246l6.019,0.093c-1.073,2.041-1.928,4.236-2.563,6.586s-0.97,4.617-1.004,6.807
			c-0.053,3.387,0.449,6,1.502,7.841s2.687,2.777,4.902,2.812c1.667,0.025,3.104-0.676,4.313-2.104
			c1.207-1.428,2.65-4.227,4.33-8.396c1.547-3.963,2.886-6.777,4.019-8.441c1.134-1.662,2.41-2.894,3.83-3.693
			c1.419-0.799,3.105-1.184,5.061-1.153c3.491,0.054,6.225,1.516,8.2,4.388c1.976,2.869,2.925,6.781,2.85,11.732
			c-0.071,4.61-1.078,9.104-3.021,13.479l-5.241-2.387c1.838-4.271,2.784-8.154,2.837-11.645c0.047-3.076-0.399-5.401-1.339-6.98
			c-0.94-1.577-2.256-2.379-3.951-2.405c-1.146-0.017-2.127,0.261-2.943,0.835c-0.817,0.573-1.601,1.506-2.35,2.797
			c-0.75,1.292-1.844,3.777-3.28,7.456c-1.93,5.052-3.844,8.456-5.748,10.212C70.49,954.83,68.119,955.685,65.278,955.642z"/>
		<path fill="#676868" d="M98.093,971.248l-27.322,5.082c-3.434,0.639-5.849,1.896-7.249,3.773c-1.399,1.877-1.79,4.48-1.171,7.813
			c0.819,4.404,2.623,7.402,5.41,8.992c2.787,1.588,6.909,1.875,12.365,0.859l22.134-4.117l1.188,6.379l-42.116,7.834l-0.979-5.264
			l5.476-1.973l-0.063-0.346c-2.318-0.921-4.245-2.438-5.776-4.551c-1.533-2.115-2.576-4.656-3.129-7.629
			c-0.953-5.123-0.451-9.187,1.51-12.188c1.959-3.002,5.615-5.001,10.97-5.998l27.553-5.125L98.093,971.248z"/>
		<path fill="#676868" d="M74.836,1047.253c-1.104-2.561-1.642-5.104-1.609-7.628c0.031-2.526,0.719-4.929,2.063-7.211l-0.188-0.431
			c-2.172,1.277-4.288,2.361-6.345,3.248l-16.188,6.981l-2.57-5.958l56.995-24.582l2.09,4.846l-5.028,3.146l0.124,0.287
			c2.814,0.604,5.138,1.715,6.973,3.336c1.834,1.621,3.318,3.747,4.454,6.379c2.249,5.216,2.203,10.011-0.139,14.385
			c-2.343,4.373-6.731,7.947-13.167,10.724c-6.461,2.786-12.102,3.509-16.922,2.169
			C80.557,1055.603,77.044,1052.373,74.836,1047.253z M110.174,1030.99c-1.733-4.021-4.1-6.447-7.099-7.282
			c-3-0.835-6.938-0.229-11.815,1.819l-1.328,0.572c-5.527,2.384-9.084,5.01-10.67,7.879c-1.587,2.869-1.502,6.338,0.252,10.406
			c1.466,3.396,3.989,5.465,7.572,6.205c3.582,0.738,7.79,0.066,12.623-2.018c4.904-2.116,8.252-4.703,10.041-7.758
			C111.54,1037.757,111.681,1034.482,110.174,1030.99z"/>
		<path fill="#676868" d="M107.74,1101.013l4.205-4.601l-0.184-0.255c-3.426-0.173-6.145-0.846-8.154-2.018
			s-3.941-3.051-5.793-5.635c-2.475-3.451-3.523-6.795-3.148-10.029s2.202-6.027,5.486-8.381c7.032-5.039,14.747-2.057,23.146,8.945
			l4.425,5.773l2.161-1.549c2.732-1.957,4.328-3.99,4.788-6.1s-0.236-4.457-2.088-7.04c-2.079-2.901-5.322-5.548-9.727-7.936
			l2.874-4.513c2.161,1.049,4.238,2.404,6.232,4.068s3.728,3.523,5.201,5.578c2.974,4.15,4.258,7.889,3.85,11.21
			s-2.645,6.44-6.712,9.354l-23.763,17.032L107.74,1101.013z M102.919,1086.435c2.353,3.283,5.101,5.217,8.244,5.801
			c3.143,0.584,6.336-0.285,9.576-2.607l3.145-2.255l-4.001-5.114c-3.154-4.088-5.973-6.645-8.456-7.67
			c-2.482-1.025-4.94-0.666-7.376,1.08c-1.906,1.365-2.944,2.982-3.111,4.851C100.771,1082.388,101.43,1084.359,102.919,1086.435z"
			/>
		<path fill="#676868" d="M134.072,1103.412l4.206-4.195l13.555,13.586l-4.206,4.195L134.072,1103.412z"/>
		<path fill="#676868" d="M170.459,1157.96l15.984-22.639c2.014-2.852,2.867-5.439,2.562-7.762c-0.307-2.32-1.844-4.459-4.61-6.412
			c-3.662-2.586-7.043-3.49-10.144-2.713c-3.102,0.777-6.26,3.445-9.476,7.998l-12.963,18.361l-5.301-3.744l24.71-34.994l4.31,3.044
			l-2.519,5.399l0.255,0.18c2.303-0.959,4.768-1.219,7.396-0.783c2.626,0.436,5.143,1.502,7.549,3.201
			c4.214,2.975,6.668,6.23,7.361,9.768c0.693,3.535-0.539,7.537-3.694,12.008l-16.12,22.83L170.459,1157.96z"/>
		<path fill="#676868" d="M236.757,1166.289c-2.683,6.449-6.401,10.807-11.155,13.076c-4.755,2.27-9.994,2.213-15.721-0.17
			c-3.536-1.471-6.331-3.607-8.382-6.408c-2.053-2.803-3.178-6.064-3.379-9.789c-0.2-3.725,0.565-7.666,2.298-11.83
			c2.683-6.445,6.384-10.797,11.104-13.053s9.944-2.191,15.67,0.191c5.532,2.301,9.164,5.971,10.892,11.01
			C239.813,1154.353,239.37,1160.011,236.757,1166.289z M206.625,1153.751c-2.103,5.053-2.693,9.322-1.774,12.809
			c0.92,3.488,3.341,6.047,7.263,7.68c3.921,1.631,7.445,1.553,10.575-0.236c3.129-1.787,5.75-5.221,7.861-10.297
			c2.093-5.027,2.666-9.27,1.718-12.727c-0.946-3.455-3.404-6.01-7.374-7.662c-3.921-1.631-7.416-1.576-10.483,0.168
			C211.341,1145.23,208.747,1148.652,206.625,1153.751z"/>
		<path fill="#676868" d="M255.788,1192.625l-7.863-45.141l6.832,1.316l4.252,26.691c0.924,6.229,1.396,10.248,1.42,12.057
			l0.307,0.059c0.544-1.301,1.973-3.938,4.291-7.91c2.316-3.973,7.467-12.619,15.445-25.943l6.831,1.316l-24.067,38.99
			L255.788,1192.625z"/>
		<path fill="#676868" d="M319.375,1197.843l-1.316-6.092h-0.313c-2.125,2.695-4.247,4.521-6.365,5.482
			c-2.12,0.961-4.771,1.447-7.947,1.463c-4.249,0.018-7.582-1.061-10.002-3.238s-3.64-5.287-3.657-9.326
			c-0.039-8.65,6.859-13.217,20.693-13.695l7.27-0.268l-0.013-2.656c-0.016-3.363-0.749-5.842-2.202-7.438s-3.77-2.387-6.949-2.373
			c-3.569,0.018-7.604,1.129-12.101,3.338l-2.017-4.955c2.105-1.154,4.414-2.064,6.926-2.727c2.512-0.664,5.03-1,7.559-1.012
			c5.106-0.023,8.897,1.094,11.369,3.35c2.473,2.256,3.721,5.885,3.744,10.889l0.13,29.236L319.375,1197.843z M304.697,1193.335
			c4.038-0.018,7.206-1.139,9.503-3.365c2.296-2.225,3.436-5.332,3.417-9.318l-0.018-3.869l-6.487,0.303
			c-5.157,0.207-8.874,1.023-11.147,2.455c-2.273,1.43-3.404,3.643-3.39,6.641c0.01,2.344,0.728,4.125,2.152,5.344
			C300.153,1192.744,302.144,1193.347,304.697,1193.335z"/>
	</g>
</g>
<g>
	<path fill="#676767" d="M-752.973,528.41c0,7.534-2.805,13.346-8.422,17.432c-5.613,4.088-13.486,6.129-23.635,6.129
		c-10.736,0-19.104-1.696-25.111-5.096v-11.373c3.893,1.969,8.064,3.521,12.518,4.651c4.459,1.132,8.754,1.7,12.895,1.7
		c6.395,0,11.32-1.021,14.77-3.066c3.445-2.041,5.172-5.157,5.172-9.344c0-3.147-1.371-5.847-4.1-8.088
		c-2.734-2.239-8.064-4.884-15.992-7.94c-7.531-2.805-12.893-5.256-16.068-7.349c-3.174-2.092-5.537-4.469-7.092-7.125
		c-1.547-2.66-2.32-5.836-2.32-9.529c0-6.599,2.684-11.806,8.047-15.623c5.367-3.813,12.727-5.721,22.088-5.721
		c8.713,0,17.23,1.771,25.553,5.316l-4.354,9.971c-8.129-3.347-15.488-5.021-22.086-5.021c-5.814,0-10.193,0.912-13.146,2.732
		c-2.957,1.821-4.438,4.333-4.438,7.535c0,2.165,0.559,4.012,1.664,5.537c1.111,1.526,2.895,2.98,5.354,4.359
		c2.465,1.379,7.193,3.373,14.184,5.98c9.6,3.498,16.088,7.017,19.465,10.565C-754.66,518.586-752.973,523.045-752.973,528.41z"/>
	<path fill="#676767" d="M-721.51,469.543v52.516c0,6.598,1.502,11.522,4.506,14.771c3.004,3.251,7.703,4.873,14.107,4.873
		c8.467,0,14.662-2.313,18.578-6.941c3.914-4.626,5.869-12.188,5.869-22.677v-42.542h12.26v80.951h-10.115l-1.777-10.857h-0.658
		c-2.518,3.986-5.996,7.043-10.457,9.157c-4.453,2.118-9.537,3.176-15.248,3.176c-9.854,0-17.225-2.339-22.127-7.017
		c-4.895-4.677-7.348-12.161-7.348-22.453v-52.957H-721.51z"/>
	<path fill="#676767" d="M-602.52,551.97c-5.268,0-10.082-0.972-14.439-2.918c-4.355-1.942-8.014-4.935-10.971-8.971h-0.883
		c0.59,4.723,0.883,9.206,0.883,13.441v33.311h-12.256v-117.29h9.967l1.697,11.078h0.592c3.152-4.433,6.82-7.631,11.006-9.603
		c4.184-1.965,8.986-2.951,14.404-2.951c10.73,0,19.02,3.668,24.854,11.005c5.838,7.337,8.754,17.628,8.754,30.871
		c0,13.296-2.969,23.626-8.9,30.986C-583.746,548.29-591.984,551.97-602.52,551.97z M-604.291,478.48
		c-8.271,0-14.258,2.29-17.947,6.87c-3.697,4.58-5.59,11.866-5.691,21.863v2.73c0,11.376,1.896,19.514,5.691,24.41
		c3.789,4.901,9.869,7.35,18.24,7.35c6.992,0,12.473-2.832,16.436-8.492c3.959-5.661,5.943-13.468,5.943-23.414
		c0-10.094-1.984-17.838-5.943-23.229C-591.525,481.178-597.104,478.48-604.291,478.48z"/>
	<path fill="#676767" d="M-497.713,550.495l-2.439-11.522h-0.592c-4.035,5.069-8.059,8.507-12.072,10.304
		c-4.018,1.794-9.027,2.694-15.035,2.694c-8.023,0-14.314-2.067-18.869-6.202c-4.553-4.139-6.834-10.021-6.834-17.656
		c0-16.345,13.074-24.912,39.221-25.702l13.74-0.441v-5.022c0-6.351-1.365-11.043-4.1-14.071c-2.734-3.027-7.102-4.541-13.109-4.541
		c-6.746,0-14.383,2.067-22.9,6.203l-3.766-9.379c3.988-2.167,8.357-3.866,13.109-5.096c4.752-1.231,9.516-1.849,14.295-1.849
		c9.648,0,16.801,2.141,21.455,6.426c4.656,4.285,6.977,11.152,6.977,20.607v55.248H-497.713z M-525.41,541.853
		c7.629,0,13.627-2.092,17.982-6.277c4.357-4.185,6.533-10.049,6.533-17.581v-7.311l-12.254,0.519
		c-9.75,0.344-16.783,1.857-21.088,4.539c-4.313,2.683-6.467,6.859-6.467,12.521c0,4.431,1.342,7.807,4.029,10.117
		C-533.99,540.695-530.236,541.853-525.41,541.853z"/>
	<path fill="#676767" d="M-470.162,515.559V504.33h36.262v11.229H-470.162z"/>
	<path fill="#676767" d="M-359.301,550.495v-52.367c0-6.599-1.502-11.522-4.506-14.772c-3.004-3.249-7.703-4.875-14.107-4.875
		c-8.465,0-14.674,2.29-18.611,6.87c-3.939,4.58-5.912,12.138-5.912,22.674v42.471h-12.254v-80.951h9.969l1.994,11.078h0.59
		c2.512-3.987,6.031-7.077,10.564-9.27c4.529-2.19,9.572-3.284,15.139-3.284c9.75,0,17.09,2.351,22.012,7.05
		c4.926,4.706,7.385,12.228,7.385,22.567v52.81H-359.301z"/>
	<path fill="#676767" d="M-251.982,509.944c0,13.199-3.324,23.5-9.967,30.911c-6.65,7.413-15.834,11.115-27.551,11.115
		c-7.24,0-13.666-1.696-19.277-5.096c-5.617-3.396-9.951-8.271-13-14.624c-3.057-6.351-4.58-13.785-4.58-22.307
		c0-13.195,3.295-23.476,9.898-30.836c6.598-7.36,15.752-11.04,27.475-11.04c11.328,0,20.32,3.765,26.994,11.299
		C-255.318,486.901-251.982,497.092-251.982,509.944z M-313.654,509.944c0,10.342,2.068,18.221,6.207,23.638
		c4.133,5.417,10.215,8.122,18.24,8.122c8.023,0,14.117-2.693,18.279-8.089c4.162-5.388,6.244-13.281,6.244-23.671
		c0-10.292-2.082-18.105-6.244-23.449c-4.162-5.34-10.301-8.015-18.428-8.015c-8.025,0-14.078,2.634-18.166,7.902
		C-311.609,491.653-313.654,499.505-313.654,509.944z"/>
	<path fill="#676767" d="M-212.762,550.495l-30.725-80.951h13.148l17.432,48.01c3.939,11.225,6.25,18.516,6.941,21.863h0.592
		c0.537-2.611,2.252-8.014,5.131-16.214c2.883-8.2,9.344-26.084,19.391-53.659h13.145l-30.725,80.951H-212.762z"/>
	<path fill="#676767" d="M-104.922,550.495l-2.441-11.522h-0.59c-4.035,5.069-8.061,8.507-12.074,10.304
		c-4.018,1.794-9.027,2.694-15.035,2.694c-8.025,0-14.313-2.067-18.869-6.202c-4.553-4.139-6.834-10.021-6.834-17.656
		c0-16.345,13.074-24.912,39.221-25.702l13.74-0.441v-5.022c0-6.351-1.365-11.043-4.1-14.071c-2.734-3.027-7.102-4.541-13.109-4.541
		c-6.746,0-14.383,2.067-22.898,6.203l-3.77-9.379c3.99-2.167,8.359-3.866,13.111-5.096c4.752-1.231,9.516-1.849,14.297-1.849
		c9.646,0,16.801,2.141,21.457,6.426c4.654,4.285,6.975,11.152,6.975,20.607v55.248H-104.922z M-132.619,541.853
		c7.629,0,13.625-2.092,17.98-6.277c4.357-4.185,6.535-10.049,6.535-17.581v-7.311l-12.256,0.519
		c-9.75,0.344-16.783,1.857-21.09,4.539c-4.309,2.683-6.463,6.859-6.463,12.521c0,4.431,1.338,7.807,4.029,10.117
		C-141.201,540.695-137.447,541.853-132.619,541.853z"/>
</g>
</svg>
